<svg xmlns="http://www.w3.org/2000/svg" width="96" height="96" viewBox="0 0 96 96">
  <defs>
    <linearGradient id="g" x1="0" y1="0" x2="1" y2="1">
      <stop offset="0" stop-color="#ff5fa2"/>
      <stop offset="1" stop-color="#c084fc"/>
    </linearGradient>
  </defs>
  <rect x="8" y="8" width="80" height="80" rx="22" fill="rgba(255,255,255,0.06)" stroke="rgba(255,255,255,0.18)"/>
  <path d="M28 52c-6-3-10-9-10-16 0-9 7-16 16-16 2-8 10-14 20-12 4-4 10-6 15-3 7-4 16-2 20 5 8 0 15 7 15 16 0 4-2 8-4 11 3 3 4 6 4 10 0 7-5 13-12 14-3 7-9 12-17 12-4 0-7-1-10-2-4 4-10 7-16 7-7 0-13-3-17-8-2 1-5 1-7 1-7 0-13-4-15-11z" fill="url(#g)" fill-opacity="0.18" stroke="url(#g)" stroke-width="2"/>
  <circle cx="34" cy="34" r="3" fill="rgba(255,255,255,0.9)"/>
  <circle cx="62" cy="34" r="3" fill="rgba(255,255,255,0.9)"/>
  <circle cx="74" cy="48" r="3" fill="rgba(255,255,255,0.9)"/>
  <circle cx="52" cy="62" r="3" fill="rgba(255,255,255,0.9)"/>
  <circle cx="30" cy="54" r="3" fill="rgba(255,255,255,0.9)"/>
</svg>
